<?xml version="1.0" encoding="utf-8"?>
<!-- Generator: Adobe Illustrator 23.0.1, SVG Export Plug-In . SVG Version: 6.00 Build 0)  -->
<svg version="1.1" id="Layer_1" xmlns="http://www.w3.org/2000/svg" xmlns:xlink="http://www.w3.org/1999/xlink" x="0px" y="0px"
	 viewBox="0 0 552.44 534.29" style="enable-background:new 0 0 552.44 534.29;" xml:space="preserve">
<style type="text/css">
	.st0{fill:#DDDDDD;}
</style>
<g>
	<g>
		<path class="st0" d="M521.58,30.97c-17.19-18.22-45.55-22.17-80.39-14.01c19.29,0.4,35.15,6.22,46.32,18.05
			c43.13,45.7,1.64,165.74-92.93,282.25l-7.82-9.71c89.07-113.41,127.1-228.11,85.17-272.54c-10.1-10.7-24.05-16.47-40.89-17.77
			c-56.31-4.36-145.01,41.41-230.95,121.32h4.23c36.75-32,73.59-57.35,107.55-74.74C349.58,44.5,383.71,35,410.14,37.13
			c-12.28,0.9-25.8,3.82-40.23,8.59c-41.02,22.37-85.62,55.51-129.18,97.34l2.22,3.4l28.19,43.15l2.52-1.87l66.12-49.18h43.86
			l-11.6,7.9l-111.34,75.88l-1.68,1.15l-43.87-54.72c-0.77,0.81-1.54,1.61-2.31,2.42c-0.98,1.04-1.95,2.09-2.92,3.13l-1.32,1.6
			l42.49,52.98L96.13,334.56H59.69l-12.6,8h44.93c-32.29,68.52-38.8,127.01-11.56,155.87c2.79,2.95,5.88,5.51,9.23,7.72
			c-2.12,0.26-4.21,0.47-6.27,0.62c-14.63,1.07-27.51-0.7-38.13-5.54c-6.41-2.92-12.01-6.94-16.66-12.15
			c-9.4-10.55-14.15-25.03-14.78-42.45c-0.8,23.47,4.6,42.71,16.95,55.81c13.07,13.85,32.58,19.46,56.48,17.77
			c65.22-4.59,163.16-63.53,252.3-157.98c6.15-6.52,12.14-13.09,17.96-19.68h15.59c-5.83,6.59-11.81,13.16-17.96,19.68
			c-78.81,83.5-164.49,139.24-228.37,154.22c64.9,1.32,168.53-58.78,262.42-158.28c4.89-5.18,9.66-10.39,14.35-15.62h11.39
			l-5.42-6.73C517.46,212.62,567.51,79.64,521.58,30.97z M290,334.56h-3.4l-31.56-45.37l-6.62-9.51l-79.73,54.88h-34.92h-16.98
			h-3.57l143.93-98.13l1.26,1.58l6,7.48l71.44,89.08H290z M350.63,334.56h-2.56L265.03,231l1.66-1.13l122.31-83.4l11.59-7.9h65.29
			l-12.3,7.9l-131.26,84.36l83.63,103.74H350.63z"/>
	</g>
	<path class="st0" d="M201.55,231.31l-20.48-23.84c-19.46,23.24-36.83,46.7-51.86,69.77L201.55,231.31z"/>
</g>
</svg>
